<svg xmlns="http://www.w3.org/2000/svg" xmlns:v="https://svgstorm.com"
viewBox = "0 0 300 300"
width="300"
height="300">
<g fill="None" fill-opacity="0.0" stroke="#BB4A97" stroke-opacity="0.51" stroke-width="0.3"><path d="
M 0.00 1.00 
C 16.43 17.34 33.87 33.28 49.75 50.25 C 65.63 67.22 84.03 82.24 99.25 99.75 C 114.46 117.26 135.78 131.09 149.00 150.00
C 149.16 149.77 150.00 150.00 150.00 150.00
C 150.25 149.75 150.00 149.00 150.00 149.00
C 131.11 135.80 117.71 114.95 100.25 99.75 C 82.78 84.55 67.75 66.17 50.75 50.25 C 33.76 34.32 17.35 16.47 1.00 0.00
L 0.00 0.00
L 0.00 1.00 Z"/>
</g>
<g fill="None" fill-opacity="0.0" stroke="#BE409E" stroke-opacity="0.03" stroke-width="0.3"><path d="
M 150.00 149.00 
C 150.18 148.93 150.00 148.00 150.00 148.00
C 131.25 134.89 118.09 114.37 100.75 99.25 C 83.41 84.13 68.13 65.58 51.25 49.75 C 34.37 33.93 18.23 16.35 2.00 0.00
L 1.00 0.00
C 17.35 16.47 33.76 34.32 50.75 50.25 C 67.75 66.17 82.78 84.55 100.25 99.75 C 117.71 114.95 131.11 135.80 150.00 149.00 Z"/>
</g>
<g fill="None" fill-opacity="0.0" stroke="#000000" stroke-opacity="0.00" stroke-width="0.3"><path d="
M 150.00 148.00 
C 168.75 134.88 181.91 114.37 199.25 99.25 C 216.59 84.12 231.87 65.58 248.75 49.75 C 265.63 33.92 281.78 16.35 298.00 0.00
L 2.00 0.00
C 18.23 16.35 34.37 33.93 51.25 49.75 C 68.13 65.58 83.41 84.13 100.75 99.25 C 118.09 114.37 131.25 134.89 150.00 148.00 Z"/>
</g>
<g fill="None" fill-opacity="0.0" stroke="#584E9E" stroke-opacity="0.06" stroke-width="0.3"><path d="
M 150.00 148.00 
C 150.00 148.00 150.18 148.93 150.00 149.00
C 168.89 135.79 182.29 114.96 199.75 99.75 C 217.22 84.55 232.26 66.18 249.25 50.25 C 266.24 34.32 282.65 16.47 299.00 0.00
L 298.00 0.00
C 281.78 16.35 265.63 33.92 248.75 49.75 C 231.87 65.58 216.59 84.12 199.25 99.25 C 181.91 114.37 168.75 134.88 150.00 148.00 Z"/>
</g>
<g fill="None" fill-opacity="0.0" stroke="#58519E" stroke-opacity="0.59" stroke-width="0.3"><path d="
M 150.00 149.00 
C 150.00 149.00 150.25 149.75 150.00 150.00
C 199.75 100.25 250.11 50.52 300.00 1.00
L 300.00 0.00
L 299.00 0.00
C 282.65 16.47 266.24 34.32 249.25 50.25 C 232.26 66.18 217.22 84.55 199.75 99.75 C 182.29 114.96 168.89 135.79 150.00 149.00 Z"/>
</g>
<g fill="None" fill-opacity="0.0" stroke="#BB4996" stroke-opacity="1.00" stroke-width="0.3"><path d="
M 0.00 299.00 
C 24.94 274.44 50.30 249.70 75.00 225.00
C 87.19 212.81 100.08 200.50 111.75 187.75 C 123.42 175.00 139.16 164.07 149.00 150.00
C 135.78 131.09 114.46 117.26 99.25 99.75 C 84.03 82.24 65.63 67.22 49.75 50.25 C 33.87 33.28 16.43 17.34 0.00 1.00
L 0.00 299.00 Z"/>
</g>
<g fill="None" fill-opacity="0.0" stroke="#57509D" stroke-opacity="1.00" stroke-width="0.3"><path d="
M 150.00 150.00 
C 137.81 162.19 124.92 174.50 113.25 187.25 C 101.58 200.00 85.84 210.93 76.00 225.00
C 85.79 239.00 101.10 248.70 112.25 261.75 C 123.39 274.80 138.12 285.77 149.00 299.00
C 175.42 276.41 199.12 248.72 225.00 225.00
C 249.92 200.08 274.40 174.14 300.00 150.00
L 300.00 1.00
C 250.11 50.52 199.75 100.25 150.00 150.00 Z"/>
</g>
<g fill="None" fill-opacity="0.0" stroke="#854D9A" stroke-opacity="1.00" stroke-width="0.3"><path d="
M 75.00 225.00 
C 75.25 224.75 76.00 225.00 76.00 225.00
C 85.84 210.93 101.58 200.00 113.25 187.25 C 124.92 174.50 137.81 162.19 150.00 150.00
C 150.00 150.00 149.16 149.77 149.00 150.00
C 139.16 164.07 123.42 175.00 111.75 187.75 C 100.08 200.50 87.19 212.81 75.00 225.00 Z"/>
</g>
<g fill="None" fill-opacity="0.0" stroke="#5171B4" stroke-opacity="1.00" stroke-width="0.3"><path d="
M 225.00 225.00 
C 235.14 229.23 240.74 242.65 249.75 249.25 C 258.76 255.85 266.02 266.88 274.75 274.25 C 283.48 281.62 291.01 291.95 300.00 299.00
L 300.00 150.00
C 274.40 174.14 249.92 200.08 225.00 225.00 Z"/>
</g>
<g fill="None" fill-opacity="0.0" stroke="#BB4A97" stroke-opacity="0.45" stroke-width="0.3"><path d="
M 0.00 299.00 
L 0.00 300.00
L 1.00 300.00
C 13.34 288.04 24.72 274.05 37.75 262.75 C 50.78 251.45 60.96 235.81 75.00 226.00
C 74.77 225.84 75.00 225.00 75.00 225.00
C 50.30 249.70 24.94 274.44 0.00 299.00 Z"/>
</g>
<g fill="None" fill-opacity="0.0" stroke="#5752A1" stroke-opacity="0.30" stroke-width="0.3"><path d="
M 75.00 226.00 
C 89.09 235.85 99.22 251.45 112.25 262.75 C 125.28 274.05 136.71 288.09 149.00 300.00
L 152.00 300.00
C 162.37 286.77 177.24 276.85 187.75 263.75 C 198.27 250.66 215.22 241.20 224.00 227.00
C 224.20 226.68 224.88 226.26 225.00 226.00
C 224.77 225.84 225.00 225.00 225.00 225.00
C 199.12 248.72 175.42 276.41 149.00 299.00
C 138.12 285.77 123.39 274.80 112.25 261.75 C 101.10 248.70 85.79 239.00 76.00 225.00
C 76.00 225.00 75.25 224.75 75.00 225.00
C 75.00 225.00 74.77 225.84 75.00 226.00 Z"/>
</g>
<g fill="None" fill-opacity="0.0" stroke="#5071B4" stroke-opacity="0.52" stroke-width="0.3"><path d="
M 225.00 226.00 
C 239.09 235.85 249.22 251.45 262.25 262.75 C 275.28 274.05 286.71 288.09 299.00 300.00
L 300.00 300.00
L 300.00 299.00
C 291.01 291.95 283.48 281.62 274.75 274.25 C 266.02 266.88 258.76 255.85 249.75 249.25 C 240.74 242.65 235.14 229.23 225.00 225.00
C 225.00 225.00 224.77 225.84 225.00 226.00 Z"/>
</g>
<g fill="None" fill-opacity="0.0" stroke="#BE4080" stroke-opacity="0.02" stroke-width="0.3"><path d="
M 1.00 300.00 
L 2.00 300.00
C 14.17 288.20 25.39 274.39 38.25 263.25 C 51.10 252.10 61.15 236.67 75.00 227.00
C 74.77 226.84 75.00 226.00 75.00 226.00
C 60.96 235.81 50.78 251.45 37.75 262.75 C 24.72 274.05 13.34 288.04 1.00 300.00 Z"/>
</g>
<g fill="None" fill-opacity="0.0" stroke="#4E4F94" stroke-opacity="0.03" stroke-width="0.3"><path d="
M 75.00 227.00 
C 88.90 236.72 98.90 252.10 111.75 263.25 C 124.61 274.39 135.88 288.25 148.00 300.00
L 149.00 300.00
C 136.71 288.09 125.28 274.05 112.25 262.75 C 99.22 251.45 89.09 235.85 75.00 226.00
C 75.00 226.00 74.77 226.84 75.00 227.00 Z"/>
</g>
<g fill="None" fill-opacity="0.0" stroke="#5A77B2" stroke-opacity="0.04" stroke-width="0.3"><path d="
M 224.00 227.00 
C 251.19 247.28 272.58 277.22 298.00 300.00
L 299.00 300.00
C 286.71 288.09 275.28 274.05 262.25 262.75 C 249.22 251.45 239.09 235.85 225.00 226.00
C 224.88 226.26 224.20 226.68 224.00 227.00 Z"/>
</g>
<g fill="None" fill-opacity="0.0" stroke="#000000" stroke-opacity="0.00" stroke-width="0.3"><path d="
M 2.00 300.00 
L 148.00 300.00
C 135.88 288.25 124.61 274.39 111.75 263.25 C 98.90 252.10 88.90 236.72 75.00 227.00
C 61.15 236.67 51.10 252.10 38.25 263.25 C 25.39 274.39 14.17 288.20 2.00 300.00 Z"/>
</g>
<g fill="None" fill-opacity="0.0" stroke="#000000" stroke-opacity="0.00" stroke-width="0.3"><path d="
M 152.00 300.00 
L 298.00 300.00
C 272.58 277.22 251.19 247.28 224.00 227.00
C 215.22 241.20 198.27 250.66 187.75 263.75 C 177.24 276.85 162.37 286.77 152.00 300.00 Z"/>
</g>
<g fill="#BB4A97" fill-opacity="0.51" stroke="None">
<path d="
M 0.00 1.00 
C 16.43 17.34 33.87 33.28 49.75 50.25 C 65.63 67.22 84.03 82.24 99.25 99.75 C 114.46 117.26 135.78 131.09 149.00 150.00
C 149.16 149.77 150.00 150.00 150.00 150.00
C 150.25 149.75 150.00 149.00 150.00 149.00
C 131.11 135.80 117.71 114.95 100.25 99.75 C 82.78 84.55 67.75 66.17 50.75 50.25 C 33.76 34.32 17.35 16.47 1.00 0.00
L 0.00 0.00
L 0.00 1.00 Z"/>
</g>
<g fill="#BE409E" fill-opacity="0.03" stroke="None">
<path d="
M 150.00 149.00 
C 150.18 148.93 150.00 148.00 150.00 148.00
C 131.25 134.89 118.09 114.37 100.75 99.25 C 83.41 84.13 68.13 65.58 51.25 49.75 C 34.37 33.93 18.23 16.35 2.00 0.00
L 1.00 0.00
C 17.35 16.47 33.76 34.32 50.75 50.25 C 67.75 66.17 82.78 84.55 100.25 99.75 C 117.71 114.95 131.11 135.80 150.00 149.00 Z"/>
</g>
<g fill="#000000" fill-opacity="0.00" stroke="None">
<path d="
M 150.00 148.00 
C 168.75 134.88 181.91 114.37 199.25 99.25 C 216.59 84.12 231.87 65.58 248.75 49.75 C 265.63 33.92 281.78 16.35 298.00 0.00
L 2.00 0.00
C 18.23 16.35 34.37 33.93 51.25 49.75 C 68.13 65.58 83.41 84.13 100.75 99.25 C 118.09 114.37 131.25 134.89 150.00 148.00 Z"/>
</g>
<g fill="#584E9E" fill-opacity="0.06" stroke="None">
<path d="
M 150.00 148.00 
C 150.00 148.00 150.18 148.93 150.00 149.00
C 168.89 135.79 182.29 114.96 199.75 99.75 C 217.22 84.55 232.26 66.18 249.25 50.25 C 266.24 34.32 282.65 16.47 299.00 0.00
L 298.00 0.00
C 281.78 16.35 265.63 33.92 248.75 49.75 C 231.87 65.58 216.59 84.12 199.25 99.25 C 181.91 114.37 168.75 134.88 150.00 148.00 Z"/>
</g>
<g fill="#58519E" fill-opacity="0.59" stroke="None">
<path d="
M 150.00 149.00 
C 150.00 149.00 150.25 149.75 150.00 150.00
C 199.75 100.25 250.11 50.52 300.00 1.00
L 300.00 0.00
L 299.00 0.00
C 282.65 16.47 266.24 34.32 249.25 50.25 C 232.26 66.18 217.22 84.55 199.75 99.75 C 182.29 114.96 168.89 135.79 150.00 149.00 Z"/>
</g>
<g fill="#BB4996" fill-opacity="1.00" stroke="None">
<path d="
M 0.00 299.00 
C 24.94 274.44 50.30 249.70 75.00 225.00
C 87.19 212.81 100.08 200.50 111.75 187.75 C 123.42 175.00 139.16 164.07 149.00 150.00
C 135.78 131.09 114.46 117.26 99.25 99.75 C 84.03 82.24 65.63 67.22 49.75 50.25 C 33.87 33.28 16.43 17.34 0.00 1.00
L 0.00 299.00 Z"/>
</g>
<g fill="#57509D" fill-opacity="1.00" stroke="None">
<path d="
M 150.00 150.00 
C 137.81 162.19 124.92 174.50 113.25 187.25 C 101.58 200.00 85.84 210.93 76.00 225.00
C 85.79 239.00 101.10 248.70 112.25 261.75 C 123.39 274.80 138.12 285.77 149.00 299.00
C 175.42 276.41 199.12 248.72 225.00 225.00
C 249.92 200.08 274.40 174.14 300.00 150.00
L 300.00 1.00
C 250.11 50.52 199.75 100.25 150.00 150.00 Z"/>
</g>
<g fill="#854D9A" fill-opacity="1.00" stroke="None">
<path d="
M 75.00 225.00 
C 75.25 224.75 76.00 225.00 76.00 225.00
C 85.84 210.93 101.58 200.00 113.25 187.25 C 124.92 174.50 137.81 162.19 150.00 150.00
C 150.00 150.00 149.16 149.77 149.00 150.00
C 139.16 164.07 123.42 175.00 111.75 187.75 C 100.08 200.50 87.19 212.81 75.00 225.00 Z"/>
</g>
<g fill="#5171B4" fill-opacity="1.00" stroke="None">
<path d="
M 225.00 225.00 
C 235.14 229.23 240.74 242.65 249.75 249.25 C 258.76 255.85 266.02 266.88 274.75 274.25 C 283.48 281.62 291.01 291.95 300.00 299.00
L 300.00 150.00
C 274.40 174.14 249.92 200.08 225.00 225.00 Z"/>
</g>
<g fill="#BB4A97" fill-opacity="0.45" stroke="None">
<path d="
M 0.00 299.00 
L 0.00 300.00
L 1.00 300.00
C 13.34 288.04 24.72 274.05 37.75 262.75 C 50.78 251.45 60.96 235.81 75.00 226.00
C 74.77 225.84 75.00 225.00 75.00 225.00
C 50.30 249.70 24.94 274.44 0.00 299.00 Z"/>
</g>
<g fill="#5752A1" fill-opacity="0.30" stroke="None">
<path d="
M 75.00 226.00 
C 89.09 235.85 99.22 251.45 112.25 262.75 C 125.28 274.05 136.71 288.09 149.00 300.00
L 152.00 300.00
C 162.37 286.77 177.24 276.85 187.75 263.75 C 198.27 250.66 215.22 241.20 224.00 227.00
C 224.20 226.68 224.88 226.26 225.00 226.00
C 224.77 225.84 225.00 225.00 225.00 225.00
C 199.12 248.72 175.42 276.41 149.00 299.00
C 138.12 285.77 123.39 274.80 112.25 261.75 C 101.10 248.70 85.79 239.00 76.00 225.00
C 76.00 225.00 75.25 224.75 75.00 225.00
C 75.00 225.00 74.77 225.84 75.00 226.00 Z"/>
</g>
<g fill="#5071B4" fill-opacity="0.52" stroke="None">
<path d="
M 225.00 226.00 
C 239.09 235.85 249.22 251.45 262.25 262.75 C 275.28 274.05 286.71 288.09 299.00 300.00
L 300.00 300.00
L 300.00 299.00
C 291.01 291.95 283.48 281.62 274.75 274.25 C 266.02 266.88 258.76 255.85 249.75 249.25 C 240.74 242.65 235.14 229.23 225.00 225.00
C 225.00 225.00 224.77 225.84 225.00 226.00 Z"/>
</g>
<g fill="#BE4080" fill-opacity="0.02" stroke="None">
<path d="
M 1.00 300.00 
L 2.00 300.00
C 14.17 288.20 25.39 274.39 38.25 263.25 C 51.10 252.10 61.15 236.67 75.00 227.00
C 74.77 226.84 75.00 226.00 75.00 226.00
C 60.96 235.81 50.78 251.45 37.75 262.75 C 24.72 274.05 13.34 288.04 1.00 300.00 Z"/>
</g>
<g fill="#4E4F94" fill-opacity="0.03" stroke="None">
<path d="
M 75.00 227.00 
C 88.90 236.72 98.90 252.10 111.75 263.25 C 124.61 274.39 135.88 288.25 148.00 300.00
L 149.00 300.00
C 136.71 288.09 125.28 274.05 112.25 262.75 C 99.22 251.45 89.09 235.85 75.00 226.00
C 75.00 226.00 74.77 226.84 75.00 227.00 Z"/>
</g>
<g fill="#5A77B2" fill-opacity="0.04" stroke="None">
<path d="
M 224.00 227.00 
C 251.19 247.28 272.58 277.22 298.00 300.00
L 299.00 300.00
C 286.71 288.09 275.28 274.05 262.25 262.75 C 249.22 251.45 239.09 235.85 225.00 226.00
C 224.88 226.26 224.20 226.68 224.00 227.00 Z"/>
</g>
<g fill="#000000" fill-opacity="0.00" stroke="None">
<path d="
M 2.00 300.00 
L 148.00 300.00
C 135.88 288.25 124.61 274.39 111.75 263.25 C 98.90 252.10 88.90 236.72 75.00 227.00
C 61.15 236.67 51.10 252.10 38.25 263.25 C 25.39 274.39 14.17 288.20 2.00 300.00 Z"/>
</g>
<g fill="#000000" fill-opacity="0.00" stroke="None">
<path d="
M 152.00 300.00 
L 298.00 300.00
C 272.58 277.22 251.19 247.28 224.00 227.00
C 215.22 241.20 198.27 250.66 187.75 263.75 C 177.24 276.85 162.37 286.77 152.00 300.00 Z"/>
</g>
</svg>