<?xml version="1.0" encoding="UTF-8" standalone="no"?>
<svg
   viewBox="0 0 126.23557 126.234"
   version="1.1"
   id="svg4"
   sodipodi:docname="ec0e3810e5f8316f9df925318abbdb43.svg"
   width="126.23557"
   height="126.234"
   xmlns:inkscape="http://www.inkscape.org/namespaces/inkscape"
   xmlns:sodipodi="http://sodipodi.sourceforge.net/DTD/sodipodi-0.dtd"
   xmlns="http://www.w3.org/2000/svg"
   xmlns:svg="http://www.w3.org/2000/svg">
  <defs
     id="defs8" />
  <sodipodi:namedview
     id="namedview6"
     pagecolor="#ffffff"
     bordercolor="#666666"
     borderopacity="1.0"
     inkscape:pageshadow="2"
     inkscape:pageopacity="0.0"
     inkscape:pagecheckerboard="0" />
  <path
     fill="#f34f29"
     d="M 123.8542,57.4945 68.738201,2.3805 c -3.172,-3.174 -8.32,-3.174 -11.497,0 l -11.444,11.446 14.518,14.518 c 3.375,-1.139 7.243,-0.375 9.932,2.314 2.703,2.706 3.461,6.607 2.294,9.993 l 13.992,13.993 c 3.385,-1.167 7.292,-0.413 9.994,2.295 3.779999,3.777 3.779999,9.9 0,13.679 a 9.673,9.673 0 0 1 -13.683,0 9.677,9.677 0 0 1 -2.105,-10.521 l -13.048,-13.048 -0.002,34.341 a 9.708,9.708 0 0 1 2.559,1.828 c 3.778,3.777 3.778,9.898 0,13.683 -3.779,3.777 -9.904,3.777 -13.679,0 -3.778,-3.784 -3.778,-9.905 0,-13.683 a 9.65,9.65 0 0 1 3.167,-2.11 v -34.659 a 9.581,9.581 0 0 1 -3.167,-2.111 c -2.862,-2.86 -3.551,-7.06 -2.083,-10.576 l -14.313,-14.313 -37.7919998,37.79 a 8.133,8.133 0 0 0 0,11.5 l 55.1169998,55.114 c 3.174,3.174 8.32,3.174 11.499,0 L 123.8552,68.9955 a 8.135,8.135 0 0 0 -10e-4,-11.501 z"
     id="path2" />
</svg>
