<svg xmlns="http://www.w3.org/2000/svg" xmlns:v="https://svgstorm.com"
viewBox = "0 0 512 512"
width="512"
height="512">
<g fill="None" fill-opacity="0.0" stroke="#000000" stroke-opacity="0.00" stroke-width="0.3"><path d="
M 0.00 250.00 
C 3.19 116.06 123.59 6.11 256.00 6.00 C 388.41 5.89 508.77 116.31 512.00 250.00
L 512.00 0.00
L 0.00 0.00
L 0.00 250.00 Z"/>
</g>
<g fill="None" fill-opacity="0.0" stroke="#FFFFFF" stroke-opacity="1.00" stroke-width="0.3"><path d="
M 0.00 250.00 
L 0.00 273.00
C 1.87 275.44 0.83 279.80 1.00 283.00
C 1.78 297.45 5.05 314.07 8.33 327.67 C 11.60 341.28 16.83 354.36 22.31 366.70 C 27.78 379.03 33.81 390.16 40.92 401.08 C 48.03 412.00 55.44 421.53 63.75 431.25 C 72.06 440.97 80.84 449.37 90.25 457.75 C 99.66 466.14 110.91 473.20 121.08 479.92 C 131.26 486.64 145.61 493.36 156.08 497.92 C 166.54 502.48 187.61 512.80 191.92 496.92 C 196.24 481.05 188.89 462.72 192.00 446.00
C 179.45 448.17 163.47 448.20 151.00 447.00 C 138.53 445.80 129.25 441.12 119.30 434.70 C 109.36 428.28 107.99 415.70 102.69 407.31 C 97.40 398.91 93.21 386.88 84.25 381.75 C 75.29 376.62 61.37 364.08 76.00 362.00 C 90.63 359.93 97.18 368.08 107.25 374.75 C 117.31 381.43 118.80 391.26 126.75 399.25 C 134.71 407.24 141.86 414.26 154.07 415.93 C 166.29 417.60 181.81 414.04 193.00 410.00
C 194.46 397.00 199.65 384.59 209.00 375.00
C 167.60 372.65 120.38 353.44 104.08 311.92 C 87.77 270.41 85.17 214.54 119.00 181.00
C 109.88 159.00 112.86 133.74 121.00 112.00
C 133.99 108.56 146.26 116.38 158.07 119.93 C 169.89 123.47 177.38 131.93 188.70 136.30 C 200.01 140.68 214.63 131.69 227.67 131.67 C 240.71 131.65 259.25 128.47 273.00 130.00 C 286.75 131.53 300.97 134.22 314.02 136.98 C 327.07 139.73 333.40 127.54 345.70 123.69 C 357.99 119.85 366.09 112.20 380.22 111.22 C 394.35 110.24 395.98 127.58 397.99 140.01 C 400.00 152.44 397.77 169.16 393.00 181.00
C 426.66 214.56 424.40 270.51 408.02 312.02 C 391.65 353.54 344.19 372.32 303.00 375.00
C 311.83 385.09 315.48 392.21 318.33 405.67 C 321.17 419.13 318.90 436.32 320.00 451.00 C 321.10 465.68 317.29 482.70 320.78 497.22 C 324.27 511.74 342.83 503.38 352.22 499.22 C 361.62 495.07 374.88 489.92 384.08 484.08 C 393.27 478.24 403.74 472.30 412.25 465.25 C 420.75 458.19 428.92 451.89 436.75 443.75 C 444.59 435.61 451.54 427.61 458.75 418.75 C 465.97 409.90 471.17 400.26 477.31 390.31 C 483.44 380.35 488.52 370.27 492.98 358.98 C 497.43 347.68 501.97 336.14 504.78 323.78 C 507.58 311.42 510.02 296.05 511.00 283.00
C 511.19 279.47 510.05 274.70 512.00 272.00
L 512.00 250.00
C 508.77 116.31 388.41 5.89 256.00 6.00 C 123.59 6.11 3.19 116.06 0.00 250.00 Z"/>
</g>
<g fill="None" fill-opacity="0.0" stroke="#000000" stroke-opacity="0.00" stroke-width="0.3"><path d="
M 1.00 283.00 
C 1.00 282.99 0.00 283.00 0.00 283.00
L 0.00 512.00
L 512.00 512.00
L 512.00 283.00
C 511.50 283.00 511.00 283.00 511.00 283.00
C 510.02 296.05 507.58 311.42 504.78 323.78 C 501.97 336.14 497.43 347.68 492.98 358.98 C 488.52 370.27 483.44 380.35 477.31 390.31 C 471.17 400.26 465.97 409.90 458.75 418.75 C 451.54 427.61 444.59 435.61 436.75 443.75 C 428.92 451.89 420.75 458.19 412.25 465.25 C 403.74 472.30 393.27 478.24 384.08 484.08 C 374.88 489.92 361.62 495.07 352.22 499.22 C 342.83 503.38 324.27 511.74 320.78 497.22 C 317.29 482.70 321.10 465.68 320.00 451.00 C 318.90 436.32 321.17 419.13 318.33 405.67 C 315.48 392.21 311.83 385.09 303.00 375.00
C 344.19 372.32 391.65 353.54 408.02 312.02 C 424.40 270.51 426.66 214.56 393.00 181.00
C 397.77 169.16 400.00 152.44 397.99 140.01 C 395.98 127.58 394.35 110.24 380.22 111.22 C 366.09 112.20 357.99 119.85 345.70 123.69 C 333.40 127.54 327.07 139.73 314.02 136.98 C 300.97 134.22 286.75 131.53 273.00 130.00 C 259.25 128.47 240.71 131.65 227.67 131.67 C 214.63 131.69 200.01 140.68 188.70 136.30 C 177.38 131.93 169.89 123.47 158.07 119.93 C 146.26 116.38 133.99 108.56 121.00 112.00
C 112.86 133.74 109.88 159.00 119.00 181.00
C 85.17 214.54 87.77 270.41 104.08 311.92 C 120.38 353.44 167.60 372.65 209.00 375.00
C 199.65 384.59 194.46 397.00 193.00 410.00
C 181.81 414.04 166.29 417.60 154.07 415.93 C 141.86 414.26 134.71 407.24 126.75 399.25 C 118.80 391.26 117.31 381.43 107.25 374.75 C 97.18 368.08 90.63 359.93 76.00 362.00 C 61.37 364.08 75.29 376.62 84.25 381.75 C 93.21 386.88 97.40 398.91 102.69 407.31 C 107.99 415.70 109.36 428.28 119.30 434.70 C 129.25 441.12 138.53 445.80 151.00 447.00 C 163.47 448.20 179.45 448.17 192.00 446.00
C 188.89 462.72 196.24 481.05 191.92 496.92 C 187.61 512.80 166.54 502.48 156.08 497.92 C 145.61 493.36 131.26 486.64 121.08 479.92 C 110.91 473.20 99.66 466.14 90.25 457.75 C 80.84 449.37 72.06 440.97 63.75 431.25 C 55.44 421.53 48.03 412.00 40.92 401.08 C 33.81 390.16 27.78 379.03 22.31 366.70 C 16.83 354.36 11.60 341.28 8.33 327.67 C 5.05 314.07 1.78 297.45 1.00 283.00 Z"/>
</g>
<g fill="None" fill-opacity="0.0" stroke="#000000" stroke-opacity="0.42" stroke-width="0.3"><path d="
M 511.00 283.00 
C 511.00 283.00 511.50 283.00 512.00 283.00
L 512.00 272.00
C 510.05 274.70 511.19 279.47 511.00 283.00 Z"/>
</g>
<g fill="None" fill-opacity="0.0" stroke="#000000" stroke-opacity="0.43" stroke-width="0.3"><path d="
M 0.00 283.00 
C 0.00 283.00 1.00 282.99 1.00 283.00
C 0.83 279.80 1.87 275.44 0.00 273.00
L 0.00 283.00 Z"/>
</g>
<g fill="#000000" fill-opacity="0.00" stroke="None">
<path d="
M 0.00 250.00 
C 3.19 116.06 123.59 6.11 256.00 6.00 C 388.41 5.89 508.77 116.31 512.00 250.00
L 512.00 0.00
L 0.00 0.00
L 0.00 250.00 Z"/>
</g>
<g fill="#FFFFFF" fill-opacity="1.00" stroke="None">
<path d="
M 0.00 250.00 
L 0.00 273.00
C 1.87 275.44 0.83 279.80 1.00 283.00
C 1.78 297.45 5.05 314.07 8.33 327.67 C 11.60 341.28 16.83 354.36 22.31 366.70 C 27.78 379.03 33.81 390.16 40.92 401.08 C 48.03 412.00 55.44 421.53 63.75 431.25 C 72.06 440.97 80.84 449.37 90.25 457.75 C 99.66 466.14 110.91 473.20 121.08 479.92 C 131.26 486.64 145.61 493.36 156.08 497.92 C 166.54 502.48 187.61 512.80 191.92 496.92 C 196.24 481.05 188.89 462.72 192.00 446.00
C 179.45 448.17 163.47 448.20 151.00 447.00 C 138.53 445.80 129.25 441.12 119.30 434.70 C 109.36 428.28 107.99 415.70 102.69 407.31 C 97.40 398.91 93.21 386.88 84.25 381.75 C 75.29 376.62 61.37 364.08 76.00 362.00 C 90.63 359.93 97.18 368.08 107.25 374.75 C 117.31 381.43 118.80 391.26 126.75 399.25 C 134.71 407.24 141.86 414.26 154.07 415.93 C 166.29 417.60 181.81 414.04 193.00 410.00
C 194.46 397.00 199.65 384.59 209.00 375.00
C 167.60 372.65 120.38 353.44 104.08 311.92 C 87.77 270.41 85.17 214.54 119.00 181.00
C 109.88 159.00 112.86 133.74 121.00 112.00
C 133.99 108.56 146.26 116.38 158.07 119.93 C 169.89 123.47 177.38 131.93 188.70 136.30 C 200.01 140.68 214.63 131.69 227.67 131.67 C 240.71 131.65 259.25 128.47 273.00 130.00 C 286.75 131.53 300.97 134.22 314.02 136.98 C 327.07 139.73 333.40 127.54 345.70 123.69 C 357.99 119.85 366.09 112.20 380.22 111.22 C 394.35 110.24 395.98 127.58 397.99 140.01 C 400.00 152.44 397.77 169.16 393.00 181.00
C 426.66 214.56 424.40 270.51 408.02 312.02 C 391.65 353.54 344.19 372.32 303.00 375.00
C 311.83 385.09 315.48 392.21 318.33 405.67 C 321.17 419.13 318.90 436.32 320.00 451.00 C 321.10 465.68 317.29 482.70 320.78 497.22 C 324.27 511.74 342.83 503.38 352.22 499.22 C 361.62 495.07 374.88 489.92 384.08 484.08 C 393.27 478.24 403.74 472.30 412.25 465.25 C 420.75 458.19 428.92 451.89 436.75 443.75 C 444.59 435.61 451.54 427.61 458.75 418.75 C 465.97 409.90 471.17 400.26 477.31 390.31 C 483.44 380.35 488.52 370.27 492.98 358.98 C 497.43 347.68 501.97 336.14 504.78 323.78 C 507.58 311.42 510.02 296.05 511.00 283.00
C 511.19 279.47 510.05 274.70 512.00 272.00
L 512.00 250.00
C 508.77 116.31 388.41 5.89 256.00 6.00 C 123.59 6.11 3.19 116.06 0.00 250.00 Z"/>
</g>
<g fill="#000000" fill-opacity="0.00" stroke="None">
<path d="
M 1.00 283.00 
C 1.00 282.99 0.00 283.00 0.00 283.00
L 0.00 512.00
L 512.00 512.00
L 512.00 283.00
C 511.50 283.00 511.00 283.00 511.00 283.00
C 510.02 296.05 507.58 311.42 504.78 323.78 C 501.97 336.14 497.43 347.68 492.98 358.98 C 488.52 370.27 483.44 380.35 477.31 390.31 C 471.17 400.26 465.97 409.90 458.75 418.75 C 451.54 427.61 444.59 435.61 436.75 443.75 C 428.92 451.89 420.75 458.19 412.25 465.25 C 403.74 472.30 393.27 478.24 384.08 484.08 C 374.88 489.92 361.62 495.07 352.22 499.22 C 342.83 503.38 324.27 511.74 320.78 497.22 C 317.29 482.70 321.10 465.68 320.00 451.00 C 318.90 436.32 321.17 419.13 318.33 405.67 C 315.48 392.21 311.83 385.09 303.00 375.00
C 344.19 372.32 391.65 353.54 408.02 312.02 C 424.40 270.51 426.66 214.56 393.00 181.00
C 397.77 169.16 400.00 152.44 397.99 140.01 C 395.98 127.58 394.35 110.24 380.22 111.22 C 366.09 112.20 357.99 119.85 345.70 123.69 C 333.40 127.54 327.07 139.73 314.02 136.98 C 300.97 134.22 286.75 131.53 273.00 130.00 C 259.25 128.47 240.71 131.65 227.67 131.67 C 214.63 131.69 200.01 140.68 188.70 136.30 C 177.38 131.93 169.89 123.47 158.07 119.93 C 146.26 116.38 133.99 108.56 121.00 112.00
C 112.86 133.74 109.88 159.00 119.00 181.00
C 85.17 214.54 87.77 270.41 104.08 311.92 C 120.38 353.44 167.60 372.65 209.00 375.00
C 199.65 384.59 194.46 397.00 193.00 410.00
C 181.81 414.04 166.29 417.60 154.07 415.93 C 141.86 414.26 134.71 407.24 126.75 399.25 C 118.80 391.26 117.31 381.43 107.25 374.75 C 97.18 368.08 90.63 359.93 76.00 362.00 C 61.37 364.08 75.29 376.62 84.25 381.75 C 93.21 386.88 97.40 398.91 102.69 407.31 C 107.99 415.70 109.36 428.28 119.30 434.70 C 129.25 441.12 138.53 445.80 151.00 447.00 C 163.47 448.20 179.45 448.17 192.00 446.00
C 188.89 462.72 196.24 481.05 191.92 496.92 C 187.61 512.80 166.54 502.48 156.08 497.92 C 145.61 493.36 131.26 486.64 121.08 479.92 C 110.91 473.20 99.66 466.14 90.25 457.75 C 80.84 449.37 72.06 440.97 63.75 431.25 C 55.44 421.53 48.03 412.00 40.92 401.08 C 33.81 390.16 27.78 379.03 22.31 366.70 C 16.83 354.36 11.60 341.28 8.33 327.67 C 5.05 314.07 1.78 297.45 1.00 283.00 Z"/>
</g>
<g fill="#000000" fill-opacity="0.42" stroke="None">
<path d="
M 511.00 283.00 
C 511.00 283.00 511.50 283.00 512.00 283.00
L 512.00 272.00
C 510.05 274.70 511.19 279.47 511.00 283.00 Z"/>
</g>
<g fill="#000000" fill-opacity="0.43" stroke="None">
<path d="
M 0.00 283.00 
C 0.00 283.00 1.00 282.99 1.00 283.00
C 0.83 279.80 1.87 275.44 0.00 273.00
L 0.00 283.00 Z"/>
</g>
</svg>