<svg xmlns="http://www.w3.org/2000/svg" xmlns:v="https://svgstorm.com"
viewBox = "0 0 300 300"
width="300"
height="300">
<g fill="None" fill-opacity="0.0" stroke="#000000" stroke-opacity="0.00" stroke-width="0.3"><path d="
M 0.00 130.00 
C 7.88 64.94 64.98 7.82 130.00 0.00
L 0.00 0.00
L 0.00 130.00 Z"/>
</g>
<g fill="None" fill-opacity="0.0" stroke="#14AA52" stroke-opacity="0.99" stroke-width="0.3"><path d="
M 0.00 130.00 
L 0.00 137.00
C 1.39 137.74 1.65 141.32 0.00 142.00
L 0.00 170.00
C 7.90 235.00 64.94 292.41 130.00 300.00
L 158.00 300.00
C 158.74 298.61 162.32 298.35 163.00 300.00
L 170.00 300.00
C 190.58 296.87 215.03 288.34 232.25 276.25 C 249.46 264.16 265.06 251.99 275.75 233.75 C 286.45 215.51 299.82 192.00 299.00 170.00
C 298.05 169.71 298.93 167.10 299.00 166.00
C 299.22 162.47 298.03 157.70 300.00 155.00
L 300.00 135.00
C 298.41 134.16 299.11 131.57 299.00 130.00
C 294.53 66.41 233.86 5.10 170.00 1.00
C 168.10 0.88 165.09 1.81 164.00 0.00
L 144.00 0.00
C 141.72 1.54 136.21 1.72 134.00 0.00
L 130.00 0.00
C 64.98 7.82 7.88 64.94 0.00 130.00
M 154.00 240.00 
C 146.68 235.43 151.41 220.03 142.75 214.25 C 134.10 208.46 131.46 202.26 125.25 194.75 C 119.04 187.25 117.57 178.19 114.01 168.99 C 110.45 159.80 110.84 146.03 111.98 135.98 C 113.12 125.92 115.76 115.44 119.31 106.31 C 122.85 97.18 127.59 90.73 132.77 82.77 C 137.95 74.81 147.56 70.85 150.00 62.00
C 155.64 73.11 164.86 80.19 172.30 90.70 C 179.74 101.20 184.94 112.87 188.33 125.67 C 191.72 138.48 192.60 158.53 188.22 171.22 C 183.84 183.92 181.26 195.22 170.75 204.75 C 160.24 214.28 152.49 224.82 154.00 240.00 Z"/>
</g>
<g fill="None" fill-opacity="0.0" stroke="#13A951" stroke-opacity="0.60" stroke-width="0.3"><path d="
M 144.00 0.00 
L 134.00 0.00
C 136.21 1.72 141.72 1.54 144.00 0.00 Z"/>
</g>
<g fill="None" fill-opacity="0.0" stroke="#0EA15D" stroke-opacity="0.15" stroke-width="0.3"><path d="
M 170.00 1.00 
C 170.02 1.00 170.00 0.00 170.00 0.00
L 164.00 0.00
C 165.09 1.81 168.10 0.88 170.00 1.00 Z"/>
</g>
<g fill="None" fill-opacity="0.0" stroke="#000000" stroke-opacity="0.00" stroke-width="0.3"><path d="
M 170.00 1.00 
C 233.86 5.10 294.53 66.41 299.00 130.00
C 299.00 129.98 300.00 130.00 300.00 130.00
L 300.00 0.00
L 170.00 0.00
C 170.00 0.00 170.02 1.00 170.00 1.00 Z"/>
</g>
<g fill="None" fill-opacity="0.0" stroke="#FDFEFD" stroke-opacity="1.00" stroke-width="0.3"><path d="
M 154.00 240.00 
C 152.49 224.82 160.24 214.28 170.75 204.75 C 181.26 195.22 183.84 183.92 188.22 171.22 C 192.60 158.53 191.72 138.48 188.33 125.67 C 184.94 112.87 179.74 101.20 172.30 90.70 C 164.86 80.19 155.64 73.11 150.00 62.00
C 147.56 70.85 137.95 74.81 132.77 82.77 C 127.59 90.73 122.85 97.18 119.31 106.31 C 115.76 115.44 113.12 125.92 111.98 135.98 C 110.84 146.03 110.45 159.80 114.01 168.99 C 117.57 178.19 119.04 187.25 125.25 194.75 C 131.46 202.26 134.10 208.46 142.75 214.25 C 151.41 220.03 146.68 235.43 154.00 240.00
M 156.00 211.00 
C 143.76 188.61 151.83 156.76 152.00 132.00
C 155.63 157.35 154.68 184.73 156.00 211.00 Z"/>
</g>
<g fill="None" fill-opacity="0.0" stroke="#0E9F5F" stroke-opacity="0.11" stroke-width="0.3"><path d="
M 300.00 135.00 
L 300.00 130.00
C 300.00 130.00 299.00 129.98 299.00 130.00
C 299.11 131.57 298.41 134.16 300.00 135.00 Z"/>
</g>
<g fill="None" fill-opacity="0.0" stroke="#3BB468" stroke-opacity="1.00" stroke-width="0.3"><path d="
M 156.00 211.00 
C 154.68 184.73 155.63 157.35 152.00 132.00
C 151.83 156.76 143.76 188.61 156.00 211.00 Z"/>
</g>
<g fill="None" fill-opacity="0.0" stroke="#13AA52" stroke-opacity="0.71" stroke-width="0.3"><path d="
M 0.00 142.00 
C 1.65 141.32 1.39 137.74 0.00 137.00
L 0.00 142.00 Z"/>
</g>
<g fill="None" fill-opacity="0.0" stroke="#13A951" stroke-opacity="0.62" stroke-width="0.3"><path d="
M 299.00 166.00 
C 299.05 165.85 300.00 166.00 300.00 166.00
L 300.00 155.00
C 298.03 157.70 299.22 162.47 299.00 166.00 Z"/>
</g>
<g fill="None" fill-opacity="0.0" stroke="#0CA05F" stroke-opacity="0.20" stroke-width="0.3"><path d="
M 299.00 170.00 
C 299.46 170.14 300.00 170.00 300.00 170.00
L 300.00 166.00
C 300.00 166.00 299.05 165.85 299.00 166.00
C 298.93 167.10 298.05 169.71 299.00 170.00 Z"/>
</g>
<g fill="None" fill-opacity="0.0" stroke="#000000" stroke-opacity="0.00" stroke-width="0.3"><path d="
M 0.00 300.00 
L 130.00 300.00
C 64.94 292.41 7.90 235.00 0.00 170.00
L 0.00 300.00 Z"/>
</g>
<g fill="None" fill-opacity="0.0" stroke="#000000" stroke-opacity="0.00" stroke-width="0.3"><path d="
M 170.00 300.00 
L 300.00 300.00
L 300.00 170.00
C 300.00 170.00 299.46 170.14 299.00 170.00
C 299.82 192.00 286.45 215.51 275.75 233.75 C 265.06 251.99 249.46 264.16 232.25 276.25 C 215.03 288.34 190.58 296.87 170.00 300.00 Z"/>
</g>
<g fill="None" fill-opacity="0.0" stroke="#13AA52" stroke-opacity="0.70" stroke-width="0.3"><path d="
M 158.00 300.00 
L 163.00 300.00
C 162.32 298.35 158.74 298.61 158.00 300.00 Z"/>
</g>
<g fill="#000000" fill-opacity="0.00" stroke="None">
<path d="
M 0.00 130.00 
C 7.88 64.94 64.98 7.82 130.00 0.00
L 0.00 0.00
L 0.00 130.00 Z"/>
</g>
<g fill="#14AA52" fill-opacity="0.99" stroke="None">
<path d="
M 0.00 130.00 
L 0.00 137.00
C 1.39 137.74 1.65 141.32 0.00 142.00
L 0.00 170.00
C 7.90 235.00 64.94 292.41 130.00 300.00
L 158.00 300.00
C 158.74 298.61 162.32 298.35 163.00 300.00
L 170.00 300.00
C 190.58 296.87 215.03 288.34 232.25 276.25 C 249.46 264.16 265.06 251.99 275.75 233.75 C 286.45 215.51 299.82 192.00 299.00 170.00
C 298.05 169.71 298.93 167.10 299.00 166.00
C 299.22 162.47 298.03 157.70 300.00 155.00
L 300.00 135.00
C 298.41 134.16 299.11 131.57 299.00 130.00
C 294.53 66.41 233.86 5.10 170.00 1.00
C 168.10 0.88 165.09 1.81 164.00 0.00
L 144.00 0.00
C 141.72 1.54 136.21 1.72 134.00 0.00
L 130.00 0.00
C 64.98 7.82 7.88 64.94 0.00 130.00
M 154.00 240.00 
C 146.68 235.43 151.41 220.03 142.75 214.25 C 134.10 208.46 131.46 202.26 125.25 194.75 C 119.04 187.25 117.57 178.19 114.01 168.99 C 110.45 159.80 110.84 146.03 111.98 135.98 C 113.12 125.92 115.76 115.44 119.31 106.31 C 122.85 97.18 127.59 90.73 132.77 82.77 C 137.95 74.81 147.56 70.85 150.00 62.00
C 155.64 73.11 164.86 80.19 172.30 90.70 C 179.74 101.20 184.94 112.87 188.33 125.67 C 191.72 138.48 192.60 158.53 188.22 171.22 C 183.84 183.92 181.26 195.22 170.75 204.75 C 160.24 214.28 152.49 224.82 154.00 240.00 Z"/>
</g>
<g fill="#13A951" fill-opacity="0.60" stroke="None">
<path d="
M 144.00 0.00 
L 134.00 0.00
C 136.21 1.72 141.72 1.54 144.00 0.00 Z"/>
</g>
<g fill="#0EA15D" fill-opacity="0.15" stroke="None">
<path d="
M 170.00 1.00 
C 170.02 1.00 170.00 0.00 170.00 0.00
L 164.00 0.00
C 165.09 1.81 168.10 0.88 170.00 1.00 Z"/>
</g>
<g fill="#000000" fill-opacity="0.00" stroke="None">
<path d="
M 170.00 1.00 
C 233.86 5.10 294.53 66.41 299.00 130.00
C 299.00 129.98 300.00 130.00 300.00 130.00
L 300.00 0.00
L 170.00 0.00
C 170.00 0.00 170.02 1.00 170.00 1.00 Z"/>
</g>
<g fill="#FDFEFD" fill-opacity="1.00" stroke="None">
<path d="
M 154.00 240.00 
C 152.49 224.82 160.24 214.28 170.75 204.75 C 181.26 195.22 183.84 183.92 188.22 171.22 C 192.60 158.53 191.72 138.48 188.33 125.67 C 184.94 112.87 179.74 101.20 172.30 90.70 C 164.86 80.19 155.64 73.11 150.00 62.00
C 147.56 70.85 137.95 74.81 132.77 82.77 C 127.59 90.73 122.85 97.18 119.31 106.31 C 115.76 115.44 113.12 125.92 111.98 135.98 C 110.84 146.03 110.45 159.80 114.01 168.99 C 117.57 178.19 119.04 187.25 125.25 194.75 C 131.46 202.26 134.10 208.46 142.75 214.25 C 151.41 220.03 146.68 235.43 154.00 240.00
M 156.00 211.00 
C 143.76 188.61 151.83 156.76 152.00 132.00
C 155.63 157.35 154.68 184.73 156.00 211.00 Z"/>
</g>
<g fill="#0E9F5F" fill-opacity="0.11" stroke="None">
<path d="
M 300.00 135.00 
L 300.00 130.00
C 300.00 130.00 299.00 129.98 299.00 130.00
C 299.11 131.57 298.41 134.16 300.00 135.00 Z"/>
</g>
<g fill="#3BB468" fill-opacity="1.00" stroke="None">
<path d="
M 156.00 211.00 
C 154.68 184.73 155.63 157.35 152.00 132.00
C 151.83 156.76 143.76 188.61 156.00 211.00 Z"/>
</g>
<g fill="#13AA52" fill-opacity="0.71" stroke="None">
<path d="
M 0.00 142.00 
C 1.65 141.32 1.39 137.74 0.00 137.00
L 0.00 142.00 Z"/>
</g>
<g fill="#13A951" fill-opacity="0.62" stroke="None">
<path d="
M 299.00 166.00 
C 299.05 165.85 300.00 166.00 300.00 166.00
L 300.00 155.00
C 298.03 157.70 299.22 162.47 299.00 166.00 Z"/>
</g>
<g fill="#0CA05F" fill-opacity="0.20" stroke="None">
<path d="
M 299.00 170.00 
C 299.46 170.14 300.00 170.00 300.00 170.00
L 300.00 166.00
C 300.00 166.00 299.05 165.85 299.00 166.00
C 298.93 167.10 298.05 169.71 299.00 170.00 Z"/>
</g>
<g fill="#000000" fill-opacity="0.00" stroke="None">
<path d="
M 0.00 300.00 
L 130.00 300.00
C 64.94 292.41 7.90 235.00 0.00 170.00
L 0.00 300.00 Z"/>
</g>
<g fill="#000000" fill-opacity="0.00" stroke="None">
<path d="
M 170.00 300.00 
L 300.00 300.00
L 300.00 170.00
C 300.00 170.00 299.46 170.14 299.00 170.00
C 299.82 192.00 286.45 215.51 275.75 233.75 C 265.06 251.99 249.46 264.16 232.25 276.25 C 215.03 288.34 190.58 296.87 170.00 300.00 Z"/>
</g>
<g fill="#13AA52" fill-opacity="0.70" stroke="None">
<path d="
M 158.00 300.00 
L 163.00 300.00
C 162.32 298.35 158.74 298.61 158.00 300.00 Z"/>
</g>
</svg>