<?xml version="1.0" encoding="UTF-8" standalone="no"?>
<svg
   viewBox="0 0 128 76.795998"
   version="1.1"
   id="svg4"
   sodipodi:docname="46897d290918bc3e87dcaa09c2b37291.svg"
   width="128"
   height="76.795998"
   xmlns:inkscape="http://www.inkscape.org/namespaces/inkscape"
   xmlns:sodipodi="http://sodipodi.sourceforge.net/DTD/sodipodi-0.dtd"
   xmlns="http://www.w3.org/2000/svg"
   xmlns:svg="http://www.w3.org/2000/svg">
  <defs
     id="defs8" />
  <sodipodi:namedview
     id="namedview6"
     pagecolor="#ffffff"
     bordercolor="#666666"
     borderopacity="1.0"
     inkscape:pageshadow="2"
     inkscape:pageopacity="0.0"
     inkscape:pagecheckerboard="0" />
  <path
     d="M 64,0 C 46.933,0 36.27,8.53 32,25.597 38.398,17.066 45.867,13.867 54.398,16 c 4.871,1.214 8.352,4.746 12.207,8.66 6.274,6.367 13.536,13.738 29.395,13.738 17.066,0 27.73,-8.531 32,-25.602 -6.399,8.536 -13.867,11.735 -22.399,9.602 -4.87,-1.215 -8.347,-4.746 -12.207,-8.66 C 87.124,7.371 79.864,0 64,0 Z M 32,38.398 C 14.934,38.398 4.27,46.929 0,64 6.398,55.464 13.866,52.265 22.398,54.398 c 4.871,1.215 8.352,4.746 12.207,8.66 6.274,6.367 13.536,13.738 29.395,13.738 17.066,0 27.73,-8.53 32,-25.597 C 89.601,59.73 82.133,62.929 73.601,60.796 68.731,59.582 65.254,56.05 61.394,52.136 55.124,45.769 47.864,38.398 32,38.398 Z m 0,0"
     fill="#38bdf8"
     id="path2" />
</svg>
