<?xml version="1.0" encoding="UTF-8" standalone="no"?>
<svg
   viewBox="0 0 125 125"
   version="1.1"
   id="svg6"
   sodipodi:docname="f77b8ff656d4da348962d9258e225bfc.svg"
   width="125"
   height="125"
   xmlns:inkscape="http://www.inkscape.org/namespaces/inkscape"
   xmlns:sodipodi="http://sodipodi.sourceforge.net/DTD/sodipodi-0.dtd"
   xmlns="http://www.w3.org/2000/svg"
   xmlns:svg="http://www.w3.org/2000/svg">
  <defs
     id="defs10" />
  <sodipodi:namedview
     id="namedview8"
     pagecolor="#ffffff"
     bordercolor="#666666"
     borderopacity="1.0"
     inkscape:pageshadow="2"
     inkscape:pageopacity="0.0"
     inkscape:pagecheckerboard="0" />
  <path
     fill="#ffffff"
     d="m 21.17,45.59 h 99.67 v 73.67 H 21.17 Z"
     id="path2" />
  <path
     data-name="original"
     fill="#007acc"
     d="M 0,62.5 V 125 H 125 V 0 H 0 Z m 100.73,-5 a 15.56,15.56 0 0 1 7.82,4.5 20.58,20.58 0 0 1 3,4 c 0,0.16 -5.4,3.81 -8.69,5.85 -0.12,0.08 -0.6,-0.44 -1.13,-1.23 a 7.09,7.09 0 0 0 -5.87,-3.53 c -3.79,-0.26 -6.23,1.73 -6.21,5 a 4.58,4.58 0 0 0 0.54,2.34 c 0.83,1.73 2.38,2.76 7.24,4.86 8.95,3.85 12.78,6.39 15.16,10 2.66,4 3.25,10.46 1.45,15.24 -2,5.2 -6.9,8.73 -13.83,9.9 a 38.32,38.32 0 0 1 -9.52,-0.1 23,23 0 0 1 -12.72,-6.63 c -1.15,-1.27 -3.39,-4.58 -3.25,-4.82 a 9.34,9.34 0 0 1 1.15,-0.73 l 4.63,-2.56 3.59,-2.08 0.75,1.11 a 16.78,16.78 0 0 0 4.74,4.54 c 4,2.1 9.46,1.81 12.16,-0.62 a 5.43,5.43 0 0 0 0.69,-6.92 c -1,-1.39 -3,-2.56 -8.59,-5 -6.45,-2.78 -9.23,-4.5 -11.77,-7.24 a 16.48,16.48 0 0 1 -3.43,-6.25 25,25 0 0 1 -0.22,-8 c 1.33,-6.23 6,-10.58 12.82,-11.87 a 31.66,31.66 0 0 1 9.49,0.26 z m -29.34,5.24 v 5.12 H 55.16 v 46.23 H 43.65 V 67.85 H 27.38 v -5 a 49.19,49.19 0 0 1 0.12,-5.17 c 0.08,-0.09 10,-0.09 22,-0.09 h 21.83 z"
     id="path4" />
</svg>
