<?xml version="1.0" encoding="UTF-8"?>
<svg version="1.1" xmlns="http://www.w3.org/2000/svg" width="1024" height="1024">
<path d="M0 0 C3.8339058 1.2779686 4.10636815 2.47450668 6.00390625 5.96875 C6.57423584 7.00572021 7.14456543 8.04269043 7.73217773 9.11108398 C8.33618408 10.22942627 8.94019043 11.34776855 9.5625 12.5 C10.83454357 14.81456871 12.10798382 17.12837037 13.3828125 19.44140625 C14.00446289 20.57336426 14.62611328 21.70532227 15.26660156 22.87158203 C17.4250432 26.76711317 19.6586966 30.61149881 21.9375 34.4375 C26.07428718 41.40703097 30.14122082 48.41502773 34.1875 55.4375 C34.82550537 56.54472412 35.46351074 57.65194824 36.12084961 58.79272461 C37.42889477 61.06337068 38.73675448 63.33412358 40.04443359 65.60498047 C43.19332054 71.0716998 46.34683264 76.53574887 49.5 82 C50.7500235 84.16665311 52.00002347 86.33331979 53.25 88.5 C53.86875 89.5725 54.4875 90.645 55.125 91.75 C90.75 153.50000001 90.75 153.50000001 92.62524414 156.75048828 C93.87435518 158.91557071 95.12354129 161.08060982 96.37280273 163.24560547 C99.51202309 168.68615706 102.64990563 174.12747216 105.78515625 179.5703125 C111.80747329 190.02206199 117.84669337 200.46299548 123.9375 210.875 C129.35921178 220.14499777 134.70204915 229.45831752 140.01922607 238.78845215 C145.22045129 247.9128284 150.48027878 257.00132774 155.78344727 266.06689453 C161.93766742 276.59084625 168.02369996 287.15380137 174.10888672 297.71777344 C177.23680148 303.14659942 180.36858448 308.57319281 183.5 314 C184.75001879 316.16665583 186.00001878 318.3333225 187.25 320.5 C188.178125 322.10875 188.178125 322.10875 189.125 323.75 C299.75000001 515.50000001 299.75000001 515.50000001 301.62524414 518.75048828 C302.87435518 520.91557071 304.12354129 523.08060982 305.37280273 525.24560547 C308.51202309 530.68615706 311.64990563 536.12747216 314.78515625 541.5703125 C320.80747329 552.02206199 326.84669337 562.46299548 332.9375 572.875 C338.35921178 582.14499777 343.70204915 591.45831752 349.01922607 600.78845215 C354.22045129 609.9128284 359.48027878 619.00132774 364.78344727 628.06689453 C370.93766742 638.59084625 377.02369996 649.15380137 383.10888672 659.71777344 C386.23680148 665.14659942 389.36858448 670.57319281 392.5 676 C393.75001879 678.16665583 395.00001878 680.3333225 396.25 682.5 C397.178125 684.10875 397.178125 684.10875 398.125 685.75 C425 732.33333333 451.875 778.91666667 478.75 825.5 C479.36931396 826.5734668 479.98862793 827.64693359 480.62670898 828.75292969 C481.87104998 830.90980903 483.11535364 833.06670992 484.35961914 835.22363281 C488.2331621 841.93824771 492.10821291 848.65199026 495.98413086 855.36523438 C497.87618581 858.64375579 499.76641412 861.92332407 501.65625 865.203125 C503.66964826 868.69709652 505.68896049 872.18740302 507.71875 875.671875 C508.45834707 876.9479087 509.19793184 878.22394954 509.9375 879.5 C510.54464844 880.5415625 511.15179687 881.583125 511.77734375 882.65625 C513 885 513 885 513 887 C175.08 887 -162.84 887 -511 887 C-509.52567141 882.57701424 -508.29659767 879.47409784 -506.015625 875.5703125 C-505.41758057 874.5405127 -504.81953613 873.51071289 -504.20336914 872.44970703 C-503.23645142 870.80397705 -503.23645142 870.80397705 -502.25 869.125 C-501.5716745 867.96107166 -500.89386723 866.79684117 -500.21655273 865.63232422 C-498.48216421 862.65332543 -496.74148059 859.67806456 -494.99847412 856.70410156 C-492.34809866 852.18069042 -489.7063649 847.65221817 -487.0625 843.125 C-486.49499023 842.15449707 -485.92748047 841.18399414 -485.34277344 840.18408203 C-480.84653158 832.48360738 -476.41505039 824.7471589 -472 817 C-466.4599827 807.27884383 -460.86625191 797.59105342 -455.21655273 787.93310547 C-449.06233258 777.40915375 -442.97630004 766.84619863 -436.89111328 756.28222656 C-433.76319852 750.85340058 -430.63141552 745.42680719 -427.5 740 C-426.24998121 737.83334417 -424.99998122 735.6666775 -423.75 733.5 C-386.25 668.5 -348.75 603.5 -311.25 538.5 C-310.63116943 537.42733887 -310.01233887 536.35467773 -309.37475586 535.24951172 C-308.12564482 533.08442929 -306.87645871 530.91939018 -305.62719727 528.75439453 C-302.48797691 523.31384294 -299.35009437 517.87252784 -296.21484375 512.4296875 C-290.19252671 501.97793801 -284.15330663 491.53700452 -278.0625 481.125 C-272.98724877 472.44737759 -267.97741233 463.73394432 -263 455 C-257.4599827 445.27884383 -251.86625191 435.59105342 -246.21655273 425.93310547 C-240.06233258 415.40915375 -233.97630004 404.84619863 -227.89111328 394.28222656 C-224.76319852 388.85340058 -221.63141552 383.42680719 -218.5 378 C-217.24998121 375.83334417 -215.99998122 373.6666775 -214.75 371.5 C-177.25 306.5 -139.75 241.5 -102.25 176.5 C-101.63116943 175.42733887 -101.01233887 174.35467773 -100.37475586 173.24951172 C-99.12564482 171.08442929 -97.87645871 168.91939018 -96.62719727 166.75439453 C-93.48797691 161.31384294 -90.35009437 155.87252784 -87.21484375 150.4296875 C-81.19252671 139.97793801 -75.15330663 129.53700452 -69.0625 119.125 C-63.98724877 110.44737759 -58.97741233 101.73394432 -54 93 C-48.4599827 83.27884383 -42.86625191 73.59105342 -37.21655273 63.93310547 C-32.97382715 56.67788254 -28.76004836 49.40645033 -24.5625 42.125 C-23.64259277 40.52942261 -23.64259277 40.52942261 -22.70410156 38.90161133 C-19.75084543 33.7774109 -16.79960456 28.65205281 -13.8495636 23.52600098 C-12.46340262 21.11782525 -11.07647251 18.71009301 -9.68942261 16.3024292 C-8.70760702 14.59741766 -7.72696016 12.8917333 -6.74633789 11.18603516 C-6.15328857 10.15655762 -5.56023926 9.12708008 -4.94921875 8.06640625 C-4.16550903 6.7043103 -4.16550903 6.7043103 -3.3659668 5.31469727 C-2.30022034 3.50873799 -1.16319248 1.74478871 0 0 Z " fill="#FFFFFF" transform="translate(511,0)"/>
</svg>
