<?xml version="1.0" encoding="UTF-8" standalone="no"?>
<svg
   viewBox="0 0 122.28445 122.43636"
   version="1.1"
   id="svg20"
   sodipodi:docname="eb3d1e43f67828744e426571f5b65018.svg"
   width="122.28445"
   height="122.43636"
   xmlns:inkscape="http://www.inkscape.org/namespaces/inkscape"
   xmlns:sodipodi="http://sodipodi.sourceforge.net/DTD/sodipodi-0.dtd"
   xmlns="http://www.w3.org/2000/svg"
   xmlns:svg="http://www.w3.org/2000/svg">
  <sodipodi:namedview
     id="namedview22"
     pagecolor="#ffffff"
     bordercolor="#666666"
     borderopacity="1.0"
     inkscape:pageshadow="2"
     inkscape:pageopacity="0.0"
     inkscape:pagecheckerboard="0" />
  <defs
     id="defs14">
    <linearGradient
       id="a"
       x1="6"
       x2="235"
       y1="33"
       y2="344"
       gradientTransform="matrix(0.3122,0,0,0.3122,-2.8863378,-0.46291346)"
       gradientUnits="userSpaceOnUse">
      <stop
         offset="0"
         stop-color="#41d1ff"
         id="stop2" />
      <stop
         offset="1"
         stop-color="#bd34fe"
         id="stop4" />
    </linearGradient>
    <linearGradient
       id="b"
       x1="194.651"
       x2="236.076"
       y1="8.8179998"
       y2="292.98901"
       gradientTransform="matrix(0.3122,0,0,0.3122,-2.8863378,-0.46291346)"
       gradientUnits="userSpaceOnUse">
      <stop
         offset="0"
         stop-color="#ffea83"
         id="stop7" />
      <stop
         offset=".083"
         stop-color="#ffdd35"
         id="stop9" />
      <stop
         offset="1"
         stop-color="#ffa800"
         id="stop11" />
    </linearGradient>
  </defs>
  <path
     fill="url(#a)"
     d="M 121.87966,18.120087 64.437662,120.83809 c -1.187,2.121 -4.234,2.133 -5.437,0.024 L 0.41866217,18.132087 c -1.313,-2.302 0.65200003,-5.087 3.26100003,-4.622 l 57.5039998,10.277 a 3.09,3.09 0 0 0 1.11,0 l 56.299998,-10.261 c 2.598,-0.473 4.575,2.289 3.286,4.594 z m 0,0"
     id="path16"
     style="fill:url(#a)" />
  <path
     fill="url(#b)"
     d="m 88.573662,0.03008654 -42.506,8.32799996 a 1.56,1.56 0 0 0 -1.258,1.437 l -2.617,44.1680005 a 1.563,1.563 0 0 0 1.91,1.614 l 11.836,-2.735 a 1.562,1.562 0 0 1 1.88,1.836 l -3.517,17.219 a 1.562,1.562 0 0 0 1.985,1.805 l 7.308,-2.223 c 1.133,-0.344 2.223,0.652 1.985,1.812 l -5.59,27.047003 c -0.348,1.692 1.902,2.614 2.84,1.164 l 0.625,-0.968 34.64,-69.130003 c 0.582,-1.16 -0.421,-2.48 -1.69,-2.234 l -12.185,2.352 a 1.558,1.558 0 0 1 -1.793,-1.965 l 7.95,-27.5620005 a 1.56,1.56 0 0 0 -1.803,-1.96499996 z m 0,0"
     id="path18"
     style="fill:url(#b)" />
</svg>
